Simulation
nRows=42
nColumns=15
endheader
time  TH_x TH_y TH_z SC_y  SC_z  SC_x  AC_y  AC_z  AC_x  GH_y  GH_z  GH_yy  EL_x  PS_y
4.8020000000000005  0.000000  0.000000  0.000000  -32.087474431314945  10.243474616692216  12.558740207642272  54.11473740105824  22.626684084963784  15.025739640730178  -2.3194268321510956  62.75854766968149  3.85222005823034  13.618893938619044  120.000000
4.850020000000001  0.000000  0.000000  0.000000  -32.279185100114894  10.193856953941967  13.03828658722041  54.315304361384435  22.319395378404916  14.696308794134529  -2.11965403922405  62.924620418111026  3.6356864554154793  13.570267348195761  120.000000
4.898040000000001  0.000000  0.000000  0.000000  -32.283403341661796  10.098981260496995  13.22336511270377  54.455737844619804  22.00805815821698  14.198090303335535  -1.792595105213233  62.82950578618956  3.4544783988005094  13.419553186103169  120.000000
4.946060000000001  0.000000  0.000000  0.000000  -32.09089391736262  9.953105371994207  13.10586520009659  54.545367367980035  21.682848576840072  13.526134147177022  -1.3617171479244856  62.44091390394915  3.2843783178123713  13.211768689460335  120.000000
4.99408  0.000000  0.000000  0.000000  -31.703834067771634  9.747378811478889  12.682495371693678  54.59429222802645  21.333926367550717  12.68684090076151  -0.8464628078018215  61.738848331520536  3.098132235974105  12.986411555653733  120.000000
5.0421000000000005  0.000000  0.000000  0.000000  -31.13690279177422  9.469587413971903  11.95519252917888  54.60966386947002  20.95405809593642  11.698948988233964  -0.2579088615443686  60.71764133930616  2.8706189419009496  12.773569851701385  120.000000
5.090120000000001  0.000000  0.000000  0.000000  -30.418162234648243  9.104978599954334  10.931201764309163  54.5920421375191  20.539307261488595  10.593317388461172  0.4034389909274599  59.38530023272902  2.583997502381105  12.594380635024825  120.000000
5.138140000000001  0.000000  0.000000  0.000000  -29.58687820358185  8.639769983296006  9.624617585727568  54.53443457392728  20.088391205645653  9.412009528856933  1.1499400811482867  57.762672774615815  2.232620454081134  12.462458697010183  120.000000
5.186160000000001  0.000000  0.000000  0.000000  -28.688715653074322  8.065828677070122  8.055026657394786  54.42458398583717  19.60540576294165  8.20868071838618  2.0098199453995202  55.88376453402556  1.8261938120518628  12.383813683863774  120.000000
5.234180000000001  0.000000  0.000000  0.000000  -27.771388270039076  7.383501231051923  6.244949356459727  54.24605568851501  19.10256361217367  7.0447455924596385  3.0208059903035585  53.793927055635535  1.3948461512506098  12.353532965347187  120.000000
5.2822000000000005  0.000000  0.000000  0.000000  -26.883265905235216  6.60208199778182  4.222431139841168  53.98093288442477  18.598222913642346  5.982009907463472  4.21744042210505  51.54453381302228  0.9904483348344816  12.354135071840759  120.000000
5.330220000000001  0.000000  0.000000  0.000000  -26.070537377293892  5.741487933736267  2.0246718172175036  53.61597274285442  18.114868815571203  5.074725546506536  5.621640782087927  49.18551007684416  0.6783806817119471  12.360040396213131  120.000000
5.378240000000001  0.000000  0.000000  0.000000  -25.372338339333428  4.832079793446813  -0.2987517769989258  53.14675757811473  17.676473864959167  4.364151654796408  7.236611504715325  46.75788870183058  0.5242784292272801  12.345864121673188  120.000000
5.426260000000001  0.000000  0.000000  0.000000  -24.816285837938775  3.9139745588629866  -2.685472913003546  52.58087013945426  17.30578596472728  3.874199342236994  9.045872341923584  44.28853751587105  0.5785831869206944  12.295175083538442  120.000000
5.474280000000001  0.000000  0.000000  0.000000  -24.41388509978246  3.034340126929405  -5.062154622589247  51.93943246757845  17.022884597519564  3.6094621346373073  11.018464596533072  41.7882699604742  0.8634359521366469  12.207168575059976  120.000000
5.5223  0.000000  0.000000  0.000000  -24.158386181269787  2.2421064800288577  -7.348336914311268  51.25582438255318  16.84371568855626  3.555603218856242  13.11787417526342  39.254590018601746  1.3668548522651305  12.096568046293472  120.000000
5.570320000000001  0.000000  0.000000  0.000000  -24.027213000766245  1.5813038319472403  -9.463669586722112  50.570143720785225  16.78024610354134  3.683380364241433  15.308513282148331  36.677432255500335  2.0484652955149016  11.988002858848429  120.000000
5.618340000000001  0.000000  0.000000  0.000000  -23.98954902398184  1.0856517280429945  -11.3345735231087  49.92427090927626  16.838224172927966  3.953058909955068  17.563569343961667  34.04830304337815  2.8496327460483037  11.908984822422845  120.000000
5.666360000000001  0.000000  0.000000  0.000000  -24.014304024602684  0.7744969391156679  -12.89880470379584  49.3577878300474  17.013160672875223  4.318657254634228  19.870187736962105  31.370047096173362  3.7067237309754324  11.88524484206319  120.000000
5.714380000000001  0.000000  0.000000  0.000000  -24.078772365898537  0.6503331185648163  -14.112629614540907  48.9042523009624  17.288168691129712  4.7364899859375775  22.229604485307533  28.664451267469996  4.561166037204414  11.938226087359952  120.000000
5.762400000000001  0.000000  0.000000  0.000000  -24.173749401049097  0.6993040390344138  -14.957630003673172  48.59054866612073  17.634615177685316  5.169817291709569  24.654403360122696  25.972809771793802  5.361340120529597  12.084120727815833  120.000000
5.810420000000001  0.000000  0.000000  0.000000  -24.303957730607987  0.892826181389163  -15.441215269107124  48.431971782203576  18.01635538571732  5.593772104828644  27.161197739885623  23.347327634943472  6.061447187374895  12.332345728230004  120.000000
5.858440000000001  0.000000  0.000000  0.000000  -24.47923575787719  1.1974868380791779  -15.593986208104363  48.43546597621877  18.401026822369037  5.992645304720712  29.77298290288687  20.841952286498557  6.608457780468567  12.684758787809283  120.000000
5.906460000000001  0.000000  0.000000  0.000000  -24.701861883407798  1.5801478545100067  -15.460362804798084  48.602349001467665  18.765272329063723  6.353565070995377  32.5324541626531  18.501392773365637  6.920236504897677  13.133833394481991  120.000000
5.954480000000001  0.000000  0.000000  0.000000  -24.967835213940912  2.0014792803901735  -15.084570005586507  48.91163672787009  19.08823960300652  6.672944488927012  35.49982864327789  16.34542528894598  6.885226674512457  13.662161867026665  120.000000
6.002500000000001  0.000000  0.000000  0.000000  -25.265208872485434  2.4290944564439325  -14.506323149261009  49.32374802819741  19.35615338404799  6.952299097759114  38.75544882389185  14.372404493871947  6.365508156157396  14.245842022398469  120.000000
6.050520000000001  0.000000  0.000000  0.000000  -25.5777067923133  2.8514303917665336  -13.762701225336938  49.80355911091808  19.56663671048455  7.1839539682988605  42.42373637505658  12.5801125261795  5.181017137845676  14.857354245721224  120.000000
6.098540000000001  0.000000  0.000000  0.000000  -25.892585406024352  3.266966554066253  -12.887576133541081  50.31796738101483  19.718025823404403  7.359772219099028  46.66213742227579  10.96720548590573  3.1351691643895543  15.467508877516444  120.000000
6.146560000000001  0.000000  0.000000  0.000000  -26.20569393500636  3.6760156590313184  -11.910513395647314  50.83242411865149  19.802741593103292  7.479627192659294  51.65763781725065  9.533091279278896  0.026371545668996934  16.045749499760298  120.000000
6.194580000000001  0.000000  0.000000  0.000000  -26.516171614044826  4.0802061639453155  -10.858400311249726  51.321501211987815  19.813662309752832  7.545135106796908  57.629607933880024  8.286291985197954  -4.356327334828305  16.561252802605154  120.000000
6.242600000000001  0.000000  0.000000  0.000000  -26.82033420992538  4.479595605258252  -9.757197513157069  51.768973247721625  19.74849604951561  7.561707646341211  64.760495129857  7.242913104188234  -10.168005944473506  16.98653013904668  120.000000
6.2906200000000005  0.000000  0.000000  0.000000  -27.11522840950413  4.870142002649641  -8.633777673258987  52.16826575365645  19.608403439655604  7.5365387703650395  73.07180521079086  6.420379884183773  -17.390277575335304  17.30222438746411  120.000000
6.338640000000001  0.000000  0.000000  0.000000  -27.395111504450064  5.244545159153343  -7.517677065562628  52.52250219940768  19.396429054092383  7.4751474920550995  82.27285311356984  5.825268601146909  -25.682941906143814  17.506058737102116  120.000000
6.386660000000001  0.000000  0.000000  0.000000  -27.65132082658909  5.591971145083083  -6.441189543998202  52.839051890192216  19.115387764506384  7.382666739627608  91.70315016121377  5.4390333429270905  -34.3306175429372  17.616637508746052  120.000000
6.434680000000001  0.000000  0.000000  0.000000  -27.87180882180119  5.899455687828516  -5.438251508707382  53.12805401050373  18.766923953238276  7.261669108404546  100.51585427239102  5.213667011602444  -42.43254073317834  17.66866592716149  120.000000
6.482700000000001  0.000000  0.000000  0.000000  -28.041231008209987  6.153148789618873  -4.542195839547211  53.39955406125459  18.35286834762323  7.113741340592851  107.97149808722223  5.083190470333485  -49.203603954892294  17.70192024404444  120.000000
6.5307200000000005  0.000000  0.000000  0.000000  -28.146806323644746  6.340682299895153  -3.7835522469550233  53.6589928220102  17.87677714381681  6.939543676378087  113.5721920417803  4.981001281519586  -54.11776846650258  17.747921938148984  120.000000
6.578740000000001  0.000000  0.000000  0.000000  -28.18460608965917  6.454528812747548  -3.1891868700491757  53.90243126744139  17.344053584115564  6.738622906363388  116.9909545957333  4.851947699646575  -56.84285248489574  17.819469772839973  120.000000
6.626760000000001  0.000000  0.000000  0.000000  -28.16006850951977  6.492119573125285  -2.781566750854584  54.115867063472045  16.76180458153746  6.509728446796548  117.90558350585775  4.662028820055474  -57.07470895761093  17.90829830152467  120.000000
6.674780000000001  0.000000  0.000000  0.000000  -28.084576191806335  6.455103940314969  -2.5772130513655895  54.27879312320017  16.138172500255838  6.252819815946835  115.82944607942176  4.408331538215205  -54.36181813287049  17.991016407433566  120.000000
6.722800000000001  0.000000  0.000000  0.000000  -27.967118801934237  6.347584133668367  -2.5850300944966835  54.368383064612956  15.48404261421535  5.973106418701958  110.03205902688326  4.1316952574891905  -48.01533757630543  18.03775380439531  120.000000
6.770820000000001  0.000000  0.000000  0.000000  -27.80816581017137  6.175827639091176  -2.8044859159841584  54.36754573259949  14.816039181724541  5.682654959406816  99.81644987733127  3.9378384954042938  -37.37694653879307  18.01792364376224  120.000000
